PathFileType	4	(X/Y/Z)	markers
DataRate	CameraRate	NumFrames	NumMarkers	Units	OrigDataRate	OrigDataStartFrame	OrigNumFrames
200	200	4	49	mm	200	110	219
Frame#	Time	RASI			LASI			RPSI			LPSI			RTH1			RTH2			RTH3			RTH4			RLFC			RMFC			RTB1			RTB2			RTB3			RTB4			RLMAL			RMMAL			RCAL			RTOE			RMT5			LTH1			LTH2			LTH3			LTH4			LLFC			LMFC			LTB1			LTB2			LTB3			LTB4			LLMAL			LMMAL			LCAL			LTOE			LMT5			C7			T10			CLAV			RACR			LACR			RLEL			RFAradius			LLEL			LFAradius			RHJC			LHJC			RKJC			LKJC			RAJC			LAJC		
		X1	Y1	Z1	X2	Y2	Z2	X3	Y3	Z3	X4	Y4	Z4	X5	Y5	Z5	X6	Y6	Z6	X7	Y7	Z7	X8	Y8	Z8	X9	Y9	Z9	X10	Y10	Z10	X11	Y11	Z11	X12	Y12	Z12	X13	Y13	Z13	X14	Y14	Z14	X15	Y15	Z15	X16	Y16	Z16	X17	Y17	Z17	X18	Y18	Z18	X19	Y19	Z19	X20	Y20	Z20	X21	Y21	Z21	X22	Y22	Z22	X23	Y23	Z23	X24	Y24	Z24	X25	Y25	Z25	X26	Y26	Z26	X27	Y27	Z27	X28	Y28	Z28	X29	Y29	Z29	X30	Y30	Z30	X31	Y31	Z31	X32	Y32	Z32	X33	Y33	Z33	X34	Y34	Z34	X35	Y35	Z35	X36	Y36	Z36	X37	Y37	Z37	X38	Y38	Z38	X39	Y39	Z39	X40	Y40	Z40	X41	Y41	Z41	X42	Y42	Z42	X43	Y43	Z43	X44	Y44	Z44	X45	Y45	Z45	X46	Y46	Z46	X47	Y47	Z47	X48	Y48	Z48	X49	Y49	Z49
110	0.545000	696.532932	1021.861968	-1485.019507	699.356522	1025.145722	-1722.959185	533.585711	1059.987454	-1558.786472	532.554458	1060.044333	-1649.013720	635.717906	772.611331	-1416.358608	691.621956	758.716075	-1447.453402	672.258237	659.637150	-1445.713510	629.080073	665.786596	-1420.481388	593.740696	549.046714	-1424.741172	589.366001	512.135825	-1539.735871	555.296238	429.806708	-1388.252529	599.860528	425.232890	-1410.385717	595.816066	318.003884	-1414.840858	538.763924	328.122725	-1385.028994	525.578208	128.948562	-1396.672395	548.837020	131.016555	-1495.771960	459.325650	90.260762	-1449.763815	678.470203	65.830722	-1467.694934	645.319346	58.397598	-1374.204541	667.880344	771.335828	-1792.002495	700.624940	770.414523	-1754.968715	691.812838	668.736601	-1743.251778	648.966004	666.021596	-1791.722531	597.183636	532.219382	-1800.781584	566.859692	517.257248	-1678.255806	581.045567	441.850088	-1831.501471	618.620919	434.741917	-1802.073225	604.961686	334.210513	-1795.266380	554.462561	337.199137	-1835.761264	539.872740	124.552537	-1807.621846	533.184786	127.541900	-1709.900062	452.874656	87.197906	-1766.590903	670.343193	69.615382	-1723.233250	644.065590	57.994302	-1819.434846	532.126197	1559.962711	-1613.647185	490.110503	1347.423631	-1609.365310	646.061085	1501.703678	-1586.290872	544.177802	1564.777945	-1482.147298	537.467602	1560.892040	-1738.231329	549.821100	1501.339716	-1168.238014	612.721296	1557.227545	-915.091841	582.049615	1482.133964	-2053.434644	678.832513	1540.857529	-2294.292798	629.902466	952.893060	-1519.923961	631.939263	955.261795	-1691.561731	591.553349	530.591270	-1482.238521	582.021664	524.738315	-1739.518695	537.207614	129.982559	-1446.222177	536.528763	126.047218	-1758.760954
111	0.550000	696.495491	1021.855120	-1485.017463	699.349470	1025.160647	-1722.938283	533.446361	1060.020232	-1558.838616	532.499925	1060.032426	-1648.971515	635.747601	772.619943	-1416.360852	691.806738	758.744646	-1447.434997	672.240335	659.712683	-1445.677259	628.897250	665.611535	-1420.527501	593.734600	549.042400	-1424.772549	589.410929	512.139207	-1539.751531	555.357952	429.843556	-1388.276026	599.876538	425.201615	-1410.407346	595.674482	317.916505	-1414.908450	538.776830	328.160264	-1385.049689	525.567906	128.946031	-1396.617716	548.835349	131.019107	-1495.766147	459.352765	90.243913	-1449.771846	678.484799	65.844832	-1467.720768	645.319336	58.421814	-1374.177331	667.782839	771.334642	-1791.966961	700.541085	770.383879	-1755.002979	691.830552	668.761368	-1743.226212	648.927869	666.033877	-1791.776803	597.187681	532.254779	-1800.813025	566.889517	517.263615	-1678.243511	580.879695	441.700082	-1831.501507	618.655675	434.790776	-1802.111845	604.935761	334.191506	-1795.277907	554.407899	337.144857	-1835.761074	539.865073	124.545660	-1807.639717	533.142298	127.471465	-1709.903109	452.917576	87.176884	-1766.626852	670.384827	69.645670	-1723.241890	644.059648	57.987640	-1819.484376	532.245270	1559.972956	-1613.547918	490.201768	1347.428474	-1609.362713	646.067009	1501.682892	-1586.307761	544.166840	1564.748854	-1482.173858	537.549928	1560.903931	-1738.241520	549.810747	1501.361617	-1168.256192	612.510819	1557.462720	-915.161703	582.000428	1482.100349	-2053.429641	678.840908	1540.843581	-2294.280467	629.857307	952.894668	-1519.933852	631.916038	955.279125	-1691.559135	591.572764	530.590803	-1482.262040	582.038599	524.759197	-1739.528268	537.201627	129.982569	-1446.191931	536.503686	126.008562	-1758.771413
112	0.555000	696.618179	1021.896757	-1485.034047	699.360528	1025.135556	-1722.926686	533.586049	1060.036270	-1558.790678	532.471339	1060.011348	-1648.935109	635.754816	772.595290	-1416.396695	691.695259	758.692401	-1447.493975	672.323556	659.661876	-1445.679361	628.988643	665.699103	-1420.504443	593.724855	549.030023	-1424.751637	589.416847	512.132952	-1539.755601	555.349775	429.838107	-1388.300524	599.919336	425.202216	-1410.352343	595.735746	317.953172	-1414.852432	538.766968	328.177025	-1385.048454	525.527534	128.897287	-1396.691816	548.847857	131.050030	-1495.762550	459.349961	90.231796	-1449.766068	678.486997	65.820805	-1467.718298	645.295598	58.415440	-1374.220669	667.739029	771.311803	-1791.930795	700.731369	770.488199	-1755.042177	691.842143	668.790215	-1743.235212	648.434883	665.717246	-1791.606833	597.148291	532.234959	-1800.810787	566.839308	517.242430	-1678.259215	580.806889	441.674806	-1831.425821	618.525597	434.792995	-1802.037740	604.913977	334.147312	-1795.225625	554.462523	337.199196	-1835.761265	539.898909	124.603292	-1807.638084	533.248636	127.495868	-1709.936822	452.787480	87.120059	-1766.609861	670.342380	69.598600	-1723.248653	644.049923	58.023997	-1819.572108	532.194875	1559.925009	-1613.650404	490.149156	1347.446141	-1609.308721	646.098466	1501.615477	-1586.250674	544.193272	1564.752735	-1482.133225	537.458406	1560.876078	-1738.181115	549.861846	1501.492430	-1168.305585	612.519446	1557.504123	-915.183957	581.963728	1482.136758	-2053.431853	678.813285	1540.851421	-2294.295066	629.969035	952.930561	-1519.894757	631.947262	955.266909	-1691.501576	591.570851	530.581487	-1482.253619	581.993799	524.738695	-1739.535001	537.187695	129.973659	-1446.227183	536.573773	126.049580	-1758.787453
113	0.560000	696.451886	1021.774606	-1484.983929	699.382860	1025.152834	-1722.948345	533.566330	1059.970999	-1558.745855	532.513965	1060.069625	-1648.899048	635.803141	772.567131	-1416.399259	691.579241	758.611461	-1447.444208	672.341477	659.664100	-1445.681710	629.042953	665.677212	-1420.470009	593.739754	549.073068	-1424.763573	589.362376	512.118375	-1539.696241	555.403331	429.824697	-1388.257388	599.870985	425.199982	-1410.360976	595.645346	317.907269	-1414.835224	538.769240	328.177940	-1385.056840	525.574523	128.895793	-1396.668791	548.832569	131.028668	-1495.759662	459.297370	90.259664	-1449.741638	678.431482	65.798908	-1467.723404	645.282756	58.453254	-1374.165092	667.870111	771.355887	-1792.003119	700.710997	770.459904	-1755.041464	691.823668	668.763397	-1743.207730	648.443558	665.705484	-1791.624256	597.175384	532.242898	-1800.782377	566.855575	517.254548	-1678.265922	580.873139	441.706949	-1831.425423	618.567379	434.689646	-1802.072447	604.863295	334.115788	-1795.224819	554.502618	337.426139	-1835.762987	539.937657	124.579778	-1807.623645	533.178588	127.501992	-1709.915188	452.799696	87.109100	-1766.589360	670.434592	69.655501	-1723.261905	644.029766	57.994980	-1819.473390	532.191284	1559.875878	-1613.648200	490.170283	1347.485584	-1609.292926	646.094087	1501.644681	-1586.324404	544.287358	1564.779279	-1482.136914	537.503456	1560.852961	-1738.214984	549.876494	1501.490327	-1168.294192	612.825286	1557.244259	-915.133343	581.982406	1482.138376	-2053.434725	678.709217	1540.831578	-2294.269839	629.814125	952.830002	-1519.950411	631.928362	955.266863	-1691.604347	591.551065	530.595722	-1482.229907	582.015480	524.748723	-1739.524149	537.203546	129.962230	-1446.214226	536.558122	126.040885	-1758.769416
